<svg width="64" height="64" viewBox="0 0 64 64" fill="none" xmlns="http://www.w3.org/2000/svg">
  <rect width="64" height="64" rx="12" fill="#22c55e"/>
  <path d="M32 18C24.268 18 18 24.268 18 32C18 39.732 24.268 46 32 46C39.732 46 46 39.732 46 32C46 24.268 39.732 18 32 18ZM32 42C26.486 42 22 37.514 22 32C22 26.486 26.486 22 32 22C37.514 22 42 26.486 42 32C42 37.514 37.514 42 32 42Z" fill="white"/>
  <path d="M32 26C30.895 26 30 26.895 30 28V36C30 37.105 30.895 38 32 38C33.105 38 34 37.105 34 36V28C34 26.895 33.105 26 32 26Z" fill="white"/>
  <path d="M37 30C35.895 30 35 30.895 35 32C35 33.105 35.895 34 37 34C38.105 34 39 33.105 39 32C39 30.895 38.105 30 37 30Z" fill="white"/>
  <path d="M27 30C25.895 30 25 30.895 25 32C25 33.105 25.895 34 27 34C28.105 34 29 33.105 29 32C29 30.895 28.105 30 27 30Z" fill="white"/>
</svg>
